<svg width="54" height="54" viewBox="0 0 54 54" fill="none" xmlns="http://www.w3.org/2000/svg">
<g filter="url(#filter0_dd_452_696)">
<rect x="6.5" y="2.5" width="41" height="41" rx="20.5" stroke="#404040" stroke-opacity="0.5"/>
<path d="M32.34 16.46C32.1027 16.46 31.8707 16.5304 31.6733 16.6622C31.476 16.7941 31.3222 16.9815 31.2313 17.2008C31.1405 17.4201 31.1168 17.6613 31.1631 17.8941C31.2094 18.1269 31.3236 18.3407 31.4915 18.5085C31.6593 18.6764 31.8731 18.7906 32.1059 18.8369C32.3387 18.8832 32.5799 18.8595 32.7992 18.7687C33.0185 18.6778 33.2059 18.524 33.3378 18.3267C33.4696 18.1293 33.54 17.8973 33.54 17.66C33.54 17.3417 33.4136 17.0365 33.1885 16.8115C32.9635 16.5864 32.6583 16.46 32.34 16.46ZM36.94 18.88C36.9206 18.0503 36.7652 17.2294 36.48 16.45C36.2257 15.7831 35.83 15.1793 35.32 14.68C34.8248 14.1674 34.2196 13.7742 33.55 13.53C32.7727 13.2362 31.9508 13.0772 31.12 13.06C30.06 13 29.72 13 27 13C24.28 13 23.94 13 22.88 13.06C22.0492 13.0772 21.2273 13.2362 20.45 13.53C19.7817 13.7766 19.1769 14.1696 18.68 14.68C18.1674 15.1752 17.7742 15.7804 17.53 16.45C17.2362 17.2273 17.0772 18.0492 17.06 18.88C17 19.94 17 20.28 17 23C17 25.72 17 26.06 17.06 27.12C17.0772 27.9508 17.2362 28.7727 17.53 29.55C17.7742 30.2196 18.1674 30.8248 18.68 31.32C19.1769 31.8304 19.7817 32.2234 20.45 32.47C21.2273 32.7638 22.0492 32.9228 22.88 32.94C23.94 33 24.28 33 27 33C29.72 33 30.06 33 31.12 32.94C31.9508 32.9228 32.7727 32.7638 33.55 32.47C34.2196 32.2258 34.8248 31.8326 35.32 31.32C35.8322 30.8226 36.2283 30.2182 36.48 29.55C36.7652 28.7706 36.9206 27.9497 36.94 27.12C36.94 26.06 37 25.72 37 23C37 20.28 37 19.94 36.94 18.88ZM35.14 27C35.1327 27.6348 35.0178 28.2637 34.8 28.86C34.6403 29.2952 34.3839 29.6884 34.05 30.01C33.7256 30.3405 33.3332 30.5964 32.9 30.76C32.3037 30.9778 31.6748 31.0927 31.04 31.1C30.04 31.15 29.67 31.16 27.04 31.16C24.41 31.16 24.04 31.16 23.04 31.1C22.3809 31.1123 21.7246 31.0109 21.1 30.8C20.6858 30.6281 20.3114 30.3728 20 30.05C19.6681 29.7287 19.4148 29.3352 19.26 28.9C19.0159 28.2952 18.8804 27.6519 18.86 27C18.86 26 18.8 25.63 18.8 23C18.8 20.37 18.8 20 18.86 19C18.8645 18.3511 18.983 17.7079 19.21 17.1C19.386 16.6779 19.6563 16.3017 20 16C20.3038 15.6562 20.6793 15.3831 21.1 15.2C21.7096 14.98 22.352 14.8651 23 14.86C24 14.86 24.37 14.8 27 14.8C29.63 14.8 30 14.8 31 14.86C31.6348 14.8673 32.2637 14.9822 32.86 15.2C33.3144 15.3687 33.7223 15.6428 34.05 16C34.3777 16.3072 34.6338 16.6827 34.8 17.1C35.0223 17.7089 35.1373 18.3518 35.14 19C35.19 20 35.2 20.37 35.2 23C35.2 25.63 35.19 26 35.14 27ZM27 17.87C25.9858 17.872 24.995 18.1745 24.1527 18.7394C23.3103 19.3043 22.6544 20.1062 22.2676 21.0438C21.8809 21.9813 21.7807 23.0125 21.9798 24.0069C22.1789 25.0014 22.6682 25.9145 23.3861 26.631C24.1039 27.3474 25.018 27.835 26.0129 28.0321C27.0077 28.2293 28.0387 28.1271 28.9755 27.7385C29.9123 27.35 30.7129 26.6924 31.2761 25.849C31.8394 25.0056 32.14 24.0142 32.14 23C32.1413 22.3251 32.0092 21.6566 31.7512 21.033C31.4933 20.4093 31.1146 19.8428 30.6369 19.3661C30.1592 18.8893 29.5919 18.5117 28.9678 18.2549C28.3436 17.9982 27.6749 17.8674 27 17.87ZM27 26.33C26.3414 26.33 25.6976 26.1347 25.15 25.7688C24.6023 25.4029 24.1755 24.8828 23.9235 24.2743C23.6714 23.6659 23.6055 22.9963 23.734 22.3503C23.8625 21.7044 24.1796 21.111 24.6453 20.6453C25.111 20.1796 25.7044 19.8625 26.3503 19.734C26.9963 19.6055 27.6659 19.6714 28.2743 19.9235C28.8828 20.1755 29.4029 20.6023 29.7688 21.15C30.1347 21.6976 30.33 22.3414 30.33 23C30.33 23.4373 30.2439 23.8703 30.0765 24.2743C29.9092 24.6784 29.6639 25.0454 29.3547 25.3547C29.0454 25.6639 28.6784 25.9092 28.2743 26.0765C27.8703 26.2439 27.4373 26.33 27 26.33Z" fill="#757575"/>
</g>
<defs>
<filter id="filter0_dd_452_696" x="0" y="0" width="54" height="54" filterUnits="userSpaceOnUse" color-interpolation-filters="sRGB">
<feFlood flood-opacity="0" result="BackgroundImageFix"/>
<feColorMatrix in="SourceAlpha" type="matrix" values="0 0 0 0 0 0 0 0 0 0 0 0 0 0 0 0 0 0 127 0" result="hardAlpha"/>
<feMorphology radius="2" operator="erode" in="SourceAlpha" result="effect1_dropShadow_452_696"/>
<feOffset dy="2"/>
<feGaussianBlur stdDeviation="2"/>
<feColorMatrix type="matrix" values="0 0 0 0 0.0627451 0 0 0 0 0.0941176 0 0 0 0 0.156863 0 0 0 0.06 0"/>
<feBlend mode="normal" in2="BackgroundImageFix" result="effect1_dropShadow_452_696"/>
<feColorMatrix in="SourceAlpha" type="matrix" values="0 0 0 0 0 0 0 0 0 0 0 0 0 0 0 0 0 0 127 0" result="hardAlpha"/>
<feMorphology radius="2" operator="erode" in="SourceAlpha" result="effect2_dropShadow_452_696"/>
<feOffset dy="4"/>
<feGaussianBlur stdDeviation="4"/>
<feColorMatrix type="matrix" values="0 0 0 0 0.0627451 0 0 0 0 0.0941176 0 0 0 0 0.156863 0 0 0 0.1 0"/>
<feBlend mode="normal" in2="effect1_dropShadow_452_696" result="effect2_dropShadow_452_696"/>
<feBlend mode="normal" in="SourceGraphic" in2="effect2_dropShadow_452_696" result="shape"/>
</filter>
</defs>
</svg>
