<svg width="54" height="54" viewBox="0 0 54 54" fill="none" xmlns="http://www.w3.org/2000/svg">
<g filter="url(#filter0_dd_452_702)">
<rect x="6.5" y="2.5" width="41" height="41" rx="20.5" stroke="#404040" stroke-opacity="0.5"/>
<path d="M18.5587 19.9979H22.1249V31.4504H18.5587V19.9979ZM20.3392 14.2979C21.4769 14.2979 22.4017 15.2226 22.4017 16.3604C22.4017 17.4981 21.4769 18.4251 20.3399 18.4251C19.7926 18.4239 19.268 18.206 18.881 17.8191C18.4939 17.4321 18.2758 16.9077 18.2744 16.3604C18.2744 16.0893 18.3278 15.8209 18.4316 15.5705C18.5354 15.3202 18.6875 15.0927 18.8793 14.9011C19.0711 14.7096 19.2987 14.5577 19.5492 14.4542C19.7997 14.3507 20.0681 14.2976 20.3392 14.2979ZM24.3517 19.9979H27.7657V21.5631H27.8129C28.2884 20.6631 29.4494 19.7136 31.1879 19.7136C34.7924 19.7136 35.4577 22.0859 35.4577 25.1691V31.4511H31.9004V25.8801C31.9004 24.5526 31.8764 22.8426 30.0509 22.8426C28.1984 22.8426 27.9134 24.2901 27.9134 25.7826V31.4481H24.3569V19.9956L24.3517 19.9979Z" fill="#757575"/>
</g>
<defs>
<filter id="filter0_dd_452_702" x="0" y="0" width="54" height="54" filterUnits="userSpaceOnUse" color-interpolation-filters="sRGB">
<feFlood flood-opacity="0" result="BackgroundImageFix"/>
<feColorMatrix in="SourceAlpha" type="matrix" values="0 0 0 0 0 0 0 0 0 0 0 0 0 0 0 0 0 0 127 0" result="hardAlpha"/>
<feMorphology radius="2" operator="erode" in="SourceAlpha" result="effect1_dropShadow_452_702"/>
<feOffset dy="2"/>
<feGaussianBlur stdDeviation="2"/>
<feColorMatrix type="matrix" values="0 0 0 0 0.0627451 0 0 0 0 0.0941176 0 0 0 0 0.156863 0 0 0 0.06 0"/>
<feBlend mode="normal" in2="BackgroundImageFix" result="effect1_dropShadow_452_702"/>
<feColorMatrix in="SourceAlpha" type="matrix" values="0 0 0 0 0 0 0 0 0 0 0 0 0 0 0 0 0 0 127 0" result="hardAlpha"/>
<feMorphology radius="2" operator="erode" in="SourceAlpha" result="effect2_dropShadow_452_702"/>
<feOffset dy="4"/>
<feGaussianBlur stdDeviation="4"/>
<feColorMatrix type="matrix" values="0 0 0 0 0.0627451 0 0 0 0 0.0941176 0 0 0 0 0.156863 0 0 0 0.1 0"/>
<feBlend mode="normal" in2="effect1_dropShadow_452_702" result="effect2_dropShadow_452_702"/>
<feBlend mode="normal" in="SourceGraphic" in2="effect2_dropShadow_452_702" result="shape"/>
</filter>
</defs>
</svg>
