<svg width="54" height="54" viewBox="0 0 54 54" fill="none" xmlns="http://www.w3.org/2000/svg">
<g filter="url(#filter0_dd_452_699)">
<rect x="6.5" y="2.5" width="41" height="41" rx="20.5" stroke="#404040" stroke-opacity="0.5"/>
<path d="M37.9914 14.9502C37.9915 14.7736 37.9448 14.6001 37.8561 14.4474C37.7673 14.2946 37.6397 14.1682 37.4862 14.0808C37.3326 13.9935 37.1587 13.9484 36.9821 13.9502C36.8054 13.9519 36.6324 14.0005 36.4807 14.0908C35.8954 14.4392 35.2652 14.706 34.6077 14.8838C33.6686 14.0781 32.471 13.6371 31.2337 13.6416C29.8762 13.6432 28.5726 14.1722 27.5979 15.117C26.6232 16.0618 26.0539 17.3484 26.01 18.7051C23.334 18.2784 20.9087 16.8816 19.1965 14.7813C19.0933 14.6561 18.9616 14.5576 18.8124 14.494C18.6631 14.4304 18.5008 14.4037 18.3391 14.416C18.1774 14.4293 18.0215 14.4818 17.8847 14.5689C17.7479 14.656 17.6343 14.7752 17.5539 14.916C17.1414 15.6358 16.9045 16.4428 16.8625 17.2713C16.8204 18.0999 16.9743 18.9267 17.3117 19.6846L17.3098 19.6865C17.1581 19.7799 17.033 19.9107 16.9463 20.0663C16.8596 20.2218 16.8143 20.3971 16.8147 20.5752C16.8128 20.7221 16.8216 20.869 16.841 21.0146C16.9432 22.2729 17.5008 23.4507 18.4094 24.3271C18.3477 24.4446 18.3101 24.5731 18.2987 24.7052C18.2873 24.8373 18.3024 24.9704 18.343 25.0967C18.7391 26.3308 19.5815 27.3727 20.7053 28.0185C19.5635 28.46 18.3307 28.614 17.1154 28.4668C16.8905 28.4386 16.6627 28.4876 16.4693 28.6059C16.2759 28.7242 16.1285 28.9047 16.0511 29.1178C15.9738 29.3309 15.9712 29.5639 16.0438 29.7787C16.1163 29.9935 16.2597 30.1772 16.4504 30.2998C18.5405 31.646 20.9741 32.3617 23.4602 32.3613C26.2795 32.393 29.0302 31.4921 31.2844 29.7988C33.5387 28.1054 35.1702 25.7145 35.925 22.998C36.2781 21.8146 36.4583 20.5865 36.4602 19.3516C36.4602 19.2861 36.4602 19.2188 36.4592 19.1514C36.9813 18.5883 37.3858 17.9267 37.6489 17.2053C37.912 16.4839 38.0284 15.7172 37.9914 14.9502ZM34.6848 18.1621C34.5196 18.3575 34.436 18.6089 34.4514 18.8643C34.4611 19.0293 34.4602 19.1953 34.4602 19.3516C34.4581 20.3951 34.3052 21.4329 34.0061 22.4326C33.3896 24.744 32.0152 26.7817 30.1031 28.2192C28.1911 29.6568 25.8519 30.4111 23.4602 30.3613C22.6011 30.3616 21.7449 30.2606 20.9094 30.0606C21.9748 29.7172 22.971 29.1879 23.8518 28.4971C24.014 28.3693 24.1328 28.1945 24.1917 27.9967C24.2506 27.7988 24.2469 27.5875 24.181 27.3918C24.1151 27.1961 23.9902 27.0257 23.8236 26.9038C23.6569 26.7819 23.4566 26.7145 23.2502 26.7109C22.419 26.698 21.6253 26.363 21.0363 25.7764C21.1858 25.7481 21.3342 25.7129 21.4817 25.6709C21.6977 25.6094 21.8867 25.477 22.0183 25.295C22.1499 25.1131 22.2165 24.8921 22.2072 24.6677C22.198 24.4433 22.1135 24.2285 21.9673 24.058C21.8212 23.8874 21.6219 23.7711 21.4016 23.7275C20.9191 23.6323 20.4651 23.427 20.0749 23.1277C19.6847 22.8284 19.3687 22.4432 19.1516 22.002C19.3323 22.0266 19.5142 22.0419 19.6965 22.0479C19.9131 22.0511 20.1251 21.9854 20.3019 21.8603C20.4787 21.7351 20.611 21.5569 20.6799 21.3516C20.7459 21.1443 20.7425 20.9212 20.6702 20.7161C20.598 20.511 20.4608 20.335 20.2795 20.2148C19.8397 19.9218 19.4793 19.5243 19.2309 19.0578C18.9824 18.5913 18.8535 18.0705 18.8557 17.542C18.8557 17.4756 18.8576 17.4092 18.8615 17.3438C21.1028 19.434 24.0099 20.6662 27.0705 20.8233C27.225 20.8293 27.3789 20.8002 27.5205 20.7382C27.6621 20.6761 27.7877 20.5826 27.8879 20.4649C27.9871 20.346 28.0573 20.2057 28.0931 20.055C28.1288 19.9044 28.1291 19.7475 28.0939 19.5967C28.0367 19.3581 28.0076 19.1136 28.007 18.8682C28.0079 18.0127 28.3482 17.1925 28.9531 16.5876C29.558 15.9827 30.3781 15.6425 31.2336 15.6416C31.6737 15.6404 32.1093 15.7305 32.5129 15.9062C32.9165 16.0818 33.2792 16.3392 33.5783 16.6621C33.6937 16.7862 33.8388 16.8787 34 16.9309C34.1612 16.983 34.333 16.993 34.4992 16.96C34.91 16.8801 35.3149 16.7724 35.7111 16.6377C35.4409 17.1907 35.0955 17.7037 34.6848 18.1621Z" fill="#757575"/>
</g>
<defs>
<filter id="filter0_dd_452_699" x="0" y="0" width="54" height="54" filterUnits="userSpaceOnUse" color-interpolation-filters="sRGB">
<feFlood flood-opacity="0" result="BackgroundImageFix"/>
<feColorMatrix in="SourceAlpha" type="matrix" values="0 0 0 0 0 0 0 0 0 0 0 0 0 0 0 0 0 0 127 0" result="hardAlpha"/>
<feMorphology radius="2" operator="erode" in="SourceAlpha" result="effect1_dropShadow_452_699"/>
<feOffset dy="2"/>
<feGaussianBlur stdDeviation="2"/>
<feColorMatrix type="matrix" values="0 0 0 0 0.0627451 0 0 0 0 0.0941176 0 0 0 0 0.156863 0 0 0 0.06 0"/>
<feBlend mode="normal" in2="BackgroundImageFix" result="effect1_dropShadow_452_699"/>
<feColorMatrix in="SourceAlpha" type="matrix" values="0 0 0 0 0 0 0 0 0 0 0 0 0 0 0 0 0 0 127 0" result="hardAlpha"/>
<feMorphology radius="2" operator="erode" in="SourceAlpha" result="effect2_dropShadow_452_699"/>
<feOffset dy="4"/>
<feGaussianBlur stdDeviation="4"/>
<feColorMatrix type="matrix" values="0 0 0 0 0.0627451 0 0 0 0 0.0941176 0 0 0 0 0.156863 0 0 0 0.1 0"/>
<feBlend mode="normal" in2="effect1_dropShadow_452_699" result="effect2_dropShadow_452_699"/>
<feBlend mode="normal" in="SourceGraphic" in2="effect2_dropShadow_452_699" result="shape"/>
</filter>
</defs>
</svg>
