<svg width="79" height="74" viewBox="0 0 79 74" fill="none" xmlns="http://www.w3.org/2000/svg">
<path id="Union" fill-rule="evenodd" clip-rule="evenodd" d="M0 69.3014V72.4773H39.0175C44.9911 72.4773 49.1878 72.8176 51.6075 73.4981C50.9269 70.3979 50.5867 65.5207 50.5867 58.8665V53.5357H47.9779L46.2766 66.8061C46.1254 68.4697 45.0667 69.3014 43.1008 69.3014H10.8886L30.2317 38.3741H40.3133C44.4721 38.3741 47.5818 39.2531 49.8503 41.2191C52.1187 43.1095 53.8957 46.5122 55.1812 51.4272L57.7899 61.8621C59.7559 69.9529 63.9147 73.9983 70.2664 73.9983C72.8373 73.9983 74.9168 73.2044 76.5047 71.6165C78.1682 70.0285 79 67.8735 79 65.1514C79 63.7903 78.8488 62.5426 78.5463 61.4084L76.3913 61.7487C76.6181 62.8829 76.7315 64.1305 76.7315 65.4916C76.7315 66.7771 76.3535 67.9113 75.5973 68.8943C74.9168 69.8017 73.9338 70.2554 72.6483 70.2554C70.153 70.2554 68.3382 67.9113 67.204 63.2232L64.5953 52.7882C63.3098 47.5708 61.1926 43.4119 58.2436 40.3117C55.2946 37.2115 50.9089 35.6236 45.0865 35.548L70.4933 4.81032C71.4007 3.75171 72.4593 3.2224 73.6691 3.2224H76.7315V1.18079H61.306V3.2224H66.9772L41.9883 33.9513C40.9285 35.2545 39.3382 36.0111 37.6585 36.0111H31.7096L51.6075 4.19665V1.02081H25.5834C19.6098 1.02081 15.4131 0.680538 12.9934 0C13.674 3.10023 14.0142 7.97742 14.0142 14.6316V19.9624H16.623L18.3243 6.69196C18.4756 5.02842 19.5342 4.19665 21.5002 4.19665H40.6054L0 69.3014Z" fill="url(#paint0_linear_496_1193)"/>
<defs>
<linearGradient id="paint0_linear_496_1193" x1="39.5" y1="0" x2="39.5" y2="73.9983" gradientUnits="userSpaceOnUse">
<stop stop-color="#ECA66F"/>
<stop offset="1" stop-color="#A6702E"/>
</linearGradient>
</defs>
</svg>
