<svg width="38" height="36" viewBox="0 0 38 36" fill="none" xmlns="http://www.w3.org/2000/svg">
<path fill-rule="evenodd" clip-rule="evenodd" d="M0 33.3349V34.8625H18.7679C21.6413 34.8625 23.66 35.0262 24.8239 35.3535C24.4965 33.8623 24.3328 31.5163 24.3328 28.3156V25.7513H23.078L22.2596 32.1346C22.1869 32.9348 21.6777 33.3349 20.732 33.3349H5.23756L14.5417 18.4586H19.3912C21.3917 18.4586 22.8875 18.8815 23.9786 19.8271C25.0698 20.7364 25.9245 22.3732 26.5429 24.7373L27.7977 29.7567C28.7434 33.6485 30.7438 35.5944 33.7991 35.5944C35.0357 35.5944 36.0359 35.2125 36.7998 34.4487C37.5999 33.6848 38 32.6482 38 31.3388C38 30.6842 37.9273 30.084 37.7818 29.5384L36.7452 29.7021C36.8543 30.2477 36.9089 30.8478 36.9089 31.5025C36.9089 32.1208 36.727 32.6664 36.3633 33.1393C36.0359 33.5757 35.5631 33.794 34.9448 33.794C33.7445 33.794 32.8716 32.6664 32.326 30.4114L31.0712 25.392C30.4528 22.8824 29.4344 20.8819 28.0159 19.3907C26.5974 17.8994 24.4878 17.1356 21.6872 17.0992L33.9082 2.31403C34.3446 1.80482 34.8538 1.55022 35.4358 1.55022H36.9089V0.568175H29.489V1.55022H32.2169L21.0662 15.2622C20.0065 16.5654 18.4161 17.322 16.7364 17.322H15.2526L24.8239 2.01864V0.491021H12.3059C9.43256 0.491021 7.41392 0.327348 6.25001 0C6.57736 1.49125 6.74104 3.83724 6.74104 7.03797V9.6022H7.99587L8.81424 3.21892C8.88698 2.41873 9.39619 2.01864 10.3419 2.01864H19.5317L0 33.3349Z" fill="url(#paint0_linear_452_692)"/>
<defs>
<linearGradient id="paint0_linear_452_692" x1="19" y1="0" x2="19" y2="35.5943" gradientUnits="userSpaceOnUse">
<stop stop-color="#ECA66F"/>
<stop offset="1" stop-color="#A6702E"/>
</linearGradient>
</defs>
</svg>
