<svg width="24" height="24" viewBox="0 0 24 24" fill="none" xmlns="http://www.w3.org/2000/svg">
<g id="vuesax/bold/ticket">
<g id="ticket">
<path id="Vector" d="M13.25 22C13.25 22.41 13.59 22.75 14 22.75L15 22.75C19.41 22.75 20.75 21.41 20.75 17L20.75 10.75L18.5 10.75C18.09 10.75 17.75 10.41 17.75 10C17.75 9.59 18.09 9.25 18.5 9.25L20.75 9.25L20.75 7C20.75 2.59 19.41 1.25 15 1.25L14.5 1.25C14.09 1.25 13.75 1.59 13.75 2C13.75 2.96 12.96 3.75 12 3.75C11.04 3.75 10.25 2.96 10.25 2C10.25 1.59 9.91 1.25 9.5 1.25L9 1.25C4.59 1.25 3.25 2.59 3.25 7L3.25 9.25L5.5 9.25C5.91 9.25 6.25 9.59 6.25 10C6.25 10.41 5.91 10.75 5.5 10.75L3.25 10.75L3.25 17C3.25 21.41 4.59 22.75 9 22.75C9.41 22.75 9.75 22.41 9.75 22C9.75 21.04 10.54 20.25 11.5 20.25C12.46 20.25 13.25 21.04 13.25 22ZM9.83 10.75C9.42 10.75 9.08 10.41 9.08 10C9.08 9.59 9.42 9.25 9.83 9.25L14.17 9.25C14.58 9.25 14.92 9.59 14.92 10C14.92 10.41 14.58 10.75 14.17 10.75L9.83 10.75Z" fill="#ECA66F"/>
</g>
</g>
</svg>
