<svg width="25" height="24" viewBox="0 0 25 24" fill="none" xmlns="http://www.w3.org/2000/svg">
<g id="logos:facebook">
<path id="Vector" d="M17.5492 20.28C16.5692 21.23 15.4992 21.08 14.4692 20.63C13.3792 20.17 12.3792 20.15 11.2292 20.63C9.78919 21.25 9.02919 21.07 8.16919 20.28C3.28919 15.25 4.00919 7.59 9.54919 7.31C10.8992 7.38 11.8392 8.05 12.6292 8.11C13.8092 7.87 14.9392 7.18 16.1992 7.27C17.7092 7.39 18.8492 7.99 19.5992 9.07C16.4792 10.94 17.2192 15.05 20.0792 16.2C19.5092 17.7 18.7692 19.19 17.5392 20.29L17.5492 20.28ZM12.5292 7.25C12.3792 5.02 14.1892 3.18 16.2692 3C16.5592 5.58 13.9292 7.5 12.5292 7.25Z" fill="#606060"/>
</g>
</svg>
