<svg width="24" height="24" viewBox="0 0 24 24" fill="none" xmlns="http://www.w3.org/2000/svg">
<g id="vuesax/bulk/lock">
<g id="lock">
<path id="Vector" opacity="0.4" d="M11.9991 17.3498C12.8994 17.3498 13.6291 16.6201 13.6291 15.7198C13.6291 14.8196 12.8994 14.0898 11.9991 14.0898C11.0989 14.0898 10.3691 14.8196 10.3691 15.7198C10.3691 16.6201 11.0989 17.3498 11.9991 17.3498Z" fill="#A66767"/>
<path id="Vector_2" d="M16.65 9.44043H7.35C3.25 9.44043 2 10.6904 2 14.7904V16.6504C2 20.7504 3.25 22.0004 7.35 22.0004H16.65C20.75 22.0004 22 20.7504 22 16.6504V14.7904C22 10.6904 20.75 9.44043 16.65 9.44043ZM12 18.7404C10.33 18.7404 8.98 17.3804 8.98 15.7204C8.98 14.0604 10.33 12.7004 12 12.7004C13.67 12.7004 15.02 14.0604 15.02 15.7204C15.02 17.3804 13.67 18.7404 12 18.7404Z" fill="#A66767"/>
<path id="Vector_3" opacity="0.4" d="M7.1207 9.45V8.28C7.1207 5.35 7.9507 3.4 12.0007 3.4C16.0507 3.4 16.8807 5.35 16.8807 8.28V9.45C17.3907 9.46 17.8507 9.48 18.2807 9.54V8.28C18.2807 5.58 17.6307 2 12.0007 2C6.3707 2 5.7207 5.58 5.7207 8.28V9.53C6.1407 9.48 6.6107 9.45 7.1207 9.45Z" fill="#A66767"/>
</g>
</g>
</svg>
