<svg width="122" height="122" viewBox="0 0 122 122" fill="none" xmlns="http://www.w3.org/2000/svg">
<g filter="url(#filter0_d_452_768)">
<rect x="26" y="14" width="70" height="70" stroke="#B27748" stroke-width="2" shape-rendering="crispEdges"/>
<path d="M60.512 57.788C59.168 57.788 57.88 57.612 56.648 57.26C55.416 56.892 54.424 56.42 53.672 55.844L54.992 52.916C55.712 53.428 56.56 53.852 57.536 54.188C58.528 54.508 59.528 54.668 60.536 54.668C61.304 54.668 61.92 54.596 62.384 54.452C62.864 54.292 63.216 54.076 63.44 53.804C63.664 53.532 63.776 53.22 63.776 52.868C63.776 52.42 63.6 52.068 63.248 51.812C62.896 51.54 62.432 51.324 61.856 51.164C61.28 50.988 60.64 50.828 59.936 50.684C59.248 50.524 58.552 50.332 57.848 50.108C57.16 49.884 56.528 49.596 55.952 49.244C55.376 48.892 54.904 48.428 54.536 47.852C54.184 47.276 54.008 46.54 54.008 45.644C54.008 44.684 54.264 43.812 54.776 43.028C55.304 42.228 56.088 41.596 57.128 41.132C58.184 40.652 59.504 40.412 61.088 40.412C62.144 40.412 63.184 40.54 64.208 40.796C65.232 41.036 66.136 41.404 66.92 41.9L65.72 44.852C64.936 44.404 64.152 44.076 63.368 43.868C62.584 43.644 61.816 43.532 61.064 43.532C60.312 43.532 59.696 43.62 59.216 43.796C58.736 43.972 58.392 44.204 58.184 44.492C57.976 44.764 57.872 45.084 57.872 45.452C57.872 45.884 58.048 46.236 58.4 46.508C58.752 46.764 59.216 46.972 59.792 47.132C60.368 47.292 61 47.452 61.688 47.612C62.392 47.772 63.088 47.956 63.776 48.164C64.48 48.372 65.12 48.652 65.696 49.004C66.272 49.356 66.736 49.82 67.088 50.396C67.456 50.972 67.64 51.7 67.64 52.58C67.64 53.524 67.376 54.388 66.848 55.172C66.32 55.956 65.528 56.588 64.472 57.068C63.432 57.548 62.112 57.788 60.512 57.788Z" fill="#774C29"/>
</g>
<defs>
<filter id="filter0_d_452_768" x="0" y="0" width="122" height="122" filterUnits="userSpaceOnUse" color-interpolation-filters="sRGB">
<feFlood flood-opacity="0" result="BackgroundImageFix"/>
<feColorMatrix in="SourceAlpha" type="matrix" values="0 0 0 0 0 0 0 0 0 0 0 0 0 0 0 0 0 0 127 0" result="hardAlpha"/>
<feOffset dy="12"/>
<feGaussianBlur stdDeviation="12.5"/>
<feComposite in2="hardAlpha" operator="out"/>
<feColorMatrix type="matrix" values="0 0 0 0 1 0 0 0 0 0.721569 0 0 0 0 0.501961 0 0 0 0.8 0"/>
<feBlend mode="normal" in2="BackgroundImageFix" result="effect1_dropShadow_452_768"/>
<feBlend mode="normal" in="SourceGraphic" in2="effect1_dropShadow_452_768" result="shape"/>
</filter>
</defs>
</svg>
