<svg width="122" height="122" viewBox="0 0 122 122" fill="none" xmlns="http://www.w3.org/2000/svg">
<g filter="url(#filter0_d_452_767)">
<rect x="26" y="14" width="70" height="70" stroke="#B27748" stroke-width="2" shape-rendering="crispEdges"/>
<path d="M46.072 57.5L53.296 47.54V50.372L46.384 40.7H50.8L55.576 47.444L53.728 47.468L58.432 40.7H62.656L55.792 50.204V47.42L63.064 57.5H58.576L53.632 50.372H55.408L50.536 57.5H46.072ZM68.8561 57.692C67.7521 57.692 66.6881 57.564 65.6641 57.308C64.6561 57.036 63.8561 56.7 63.2641 56.3L64.5121 53.612C65.1041 53.98 65.8001 54.284 66.6001 54.524C67.4161 54.748 68.2161 54.86 69.0001 54.86C69.8641 54.86 70.4721 54.756 70.8241 54.548C71.1921 54.34 71.3761 54.052 71.3761 53.684C71.3761 53.38 71.2321 53.156 70.9441 53.012C70.6721 52.852 70.3041 52.732 69.8401 52.652C69.3761 52.572 68.8641 52.492 68.3041 52.412C67.7601 52.332 67.2081 52.228 66.6481 52.1C66.0881 51.956 65.5761 51.748 65.1121 51.476C64.6481 51.204 64.2721 50.836 63.9841 50.372C63.7121 49.908 63.5761 49.308 63.5761 48.572C63.5761 47.756 63.8081 47.036 64.2721 46.412C64.7521 45.788 65.4401 45.3 66.3361 44.948C67.2321 44.58 68.3041 44.396 69.5521 44.396C70.4321 44.396 71.3281 44.492 72.2401 44.684C73.1521 44.876 73.9121 45.156 74.5201 45.524L73.2721 48.188C72.6481 47.82 72.0161 47.572 71.3761 47.444C70.7521 47.3 70.1441 47.228 69.5521 47.228C68.7201 47.228 68.1121 47.34 67.7281 47.564C67.3441 47.788 67.1521 48.076 67.1521 48.428C67.1521 48.748 67.2881 48.988 67.5601 49.148C67.8481 49.308 68.2241 49.436 68.6881 49.532C69.1521 49.628 69.6561 49.716 70.2001 49.796C70.7601 49.86 71.3201 49.964 71.8801 50.108C72.4401 50.252 72.9441 50.46 73.3921 50.732C73.8561 50.988 74.2321 51.348 74.5201 51.812C74.8081 52.26 74.9521 52.852 74.9521 53.588C74.9521 54.388 74.7121 55.1 74.2321 55.724C73.7521 56.332 73.0561 56.812 72.1441 57.164C71.2481 57.516 70.1521 57.692 68.8561 57.692Z" fill="#774C29"/>
</g>
<defs>
<filter id="filter0_d_452_767" x="0" y="0" width="122" height="122" filterUnits="userSpaceOnUse" color-interpolation-filters="sRGB">
<feFlood flood-opacity="0" result="BackgroundImageFix"/>
<feColorMatrix in="SourceAlpha" type="matrix" values="0 0 0 0 0 0 0 0 0 0 0 0 0 0 0 0 0 0 127 0" result="hardAlpha"/>
<feOffset dy="12"/>
<feGaussianBlur stdDeviation="12.5"/>
<feComposite in2="hardAlpha" operator="out"/>
<feColorMatrix type="matrix" values="0 0 0 0 1 0 0 0 0 0.721569 0 0 0 0 0.501961 0 0 0 0.8 0"/>
<feBlend mode="normal" in2="BackgroundImageFix" result="effect1_dropShadow_452_767"/>
<feBlend mode="normal" in="SourceGraphic" in2="effect1_dropShadow_452_767" result="shape"/>
</filter>
</defs>
</svg>
